<svg viewBox="0 0 14 14" xmlns="http://www.w3.org/2000/svg"><path d="m12.8427947 4.62248716-.68870866-.68870866c-2.42545225-2.36556455-8.23456012-2.03618214-10.33062997 0l-.68870867.68870866c-.17966313.17966313-.17966313.47910168 0 .68870867l1.37741733 1.34747347c.17966313.17966313.50904554.17966313.68870867 0l1.5271366-1.4672489-.11977542-1.5870243c.47910168-.47910168 4.31191512-.47910168 4.7910168 0l-.08983156 1.64691203 1.46724888 1.40736117c.17966313.17966313.50904554.17966313.68870867 0l1.37741733-1.34747347c.20960698-.20960699.20960698-.50904554 0-.68870867z" fill="#f44336"/><g fill="#b71c1c"><path d="m7.00374298 11.7191808-2.3955084-2.84466623h4.7910168z"/><path d="m6.10542733 6.77844472h1.7966313v2.24578913h-1.7966313z"/></g></svg>