<svg fill="none" height="48" viewBox="0 0 48 48" width="48" xmlns="http://www.w3.org/2000/svg"><path clip-rule="evenodd" d="m24 15c-.5523 0-1 .4477-1 1v3c0 .5523.4477 1 1 1s1-.4477 1-1v-2h6v14h-6v-2c0-.5523-.4477-1-1-1s-1 .4477-1 1v3c0 .5523.4477 1 1 1h8c.5523 0 1-.4477 1-1v-16c0-.5523-.4477-1-1-1zm-5.7071 5.2929c.3905-.3905 1.0237-.3905 1.4142 0s.3905 1.0237 0 1.4142l-1.2929 1.2929h9.5858c.5523 0 1 .4477 1 1s-.4477 1-1 1h-9.5858l1.2929 1.2929c.3905.3905.3905 1.0237 0 1.4142s-1.0237.3905-1.4142 0l-3-3c-.3905-.3905-.3905-1.0237 0-1.4142z" fill="#222" fill-rule="evenodd"/></svg>