<svg viewBox="0 0 24 24" xmlns="http://www.w3.org/2000/svg"><path d="m0 0h24v24h-24z" fill="#fff" opacity="0"/><g fill="#231f20"><path d="m17 15.59-2-2-6.59-6.59-2-2-1.7-1.71a1 1 0 0 0 -1.42 1.42l.54.53 1.76 1.76 9.34 9.34 1.46 1.46 2.9 2.91a1 1 0 0 0 1.42 0 1 1 0 0 0 0-1.42z"/><path d="m14 17h-9a1 1 0 0 1 -1-1v-8a1 1 0 0 1 .4-.78l-1.4-1.42a3 3 0 0 0 -1 2.2v8a3 3 0 0 0 3 3h9a2.94 2.94 0 0 0 1.66-.51l-1.52-1.49a.7.7 0 0 1 -.14 0z"/><path d="m21 7.15a1.7 1.7 0 0 0 -1.85.3l-2.15 2v-1.45a3 3 0 0 0 -3-3h-6.17l2 2h4.17a1 1 0 0 1 1 1v4.17l4.72 4.72a1.73 1.73 0 0 0 .6.11 1.68 1.68 0 0 0 .69-.15 1.6 1.6 0 0 0 1-1.48v-6.74a1.6 1.6 0 0 0 -1.01-1.48zm-1 7.45-2.81-2.6 2.81-2.6z"/></g></svg>